<svg width="212" height="95" viewBox="0 0 212 95" fill="none" xmlns="http://www.w3.org/2000/svg">
<path fill-rule="evenodd" clip-rule="evenodd" d="M39.7438 79.918C36.1825 79.8681 31.5332 79.3002 28.6438 78.3C18.0438 74.8 9.04377 64.5 6.64377 53.2C2.74377 34.5 17.0438 15.8 36.5438 14.2H39.7438V14L41.8438 14.2H42.7438V14.2857L43.9438 14.4C54.6438 16.1 63.9438 23.3 68.8438 33.5C72.9438 42 72.9438 52 68.8438 60.5C63.9438 70.7 54.6438 77.9 43.9438 79.6L43.8609 79.6079C43.1199 79.8038 41.9627 79.9058 40.5848 79.9199L39.7438 80V79.918ZM47.6296 49.4815C50.2719 47.0281 52.7438 43.9453 52.7438 42.5C52.7438 41.4424 52.1245 40.9266 51.4398 41.0491C51.2259 41.6392 50.9126 42 50.5438 42C50.4425 42 50.3265 42.0251 50.1992 42.0724C50.0628 42.2585 49.7702 42.4233 49.3733 42.5606C48.7387 43.0429 48.0239 43.7878 47.4438 44.6C45.7438 46.9 45.6438 47.3 47.1438 48.9C47.3216 49.0927 47.4836 49.2865 47.6296 49.4815ZM29.1438 35.8C30.9438 33.3 32.7438 35.5 32.7438 40.2C32.7438 43.6 32.4438 44 30.2438 44C28.0438 44 27.7438 43.6 27.7438 40.8C27.7438 39 28.3438 36.7 29.1438 35.8Z" fill="#2EC5DB"/>
<path d="M23.9128 62.5L22.7438 60.8L22.2438 58.5L21.7438 54V47.1C21.7438 35 21.941 33.9 23.9128 31.9C26.4762 29.2 31.5043 29.1 34.1663 31.6C35.8424 33.1 36.0395 34.8 36.0395 47C36.0395 61.9 35.6452 63.1 30.0255 64.5C28.0536 65 24.8001 63.5 23.9128 62.5ZM33.4762 60.8C34.4621 59.4 35.0536 56.4 35.0536 52.8V47H25.1945V40.7C25.1945 37.2 25.4903 34 25.9832 33.4C26.3776 32.9 25.8846 33.3 24.9973 34.3C22.5325 36.9 22.4339 57.4 24.8001 60.8C26.7719 63.8 31.5043 63.8 33.4762 60.8Z" fill="white"/>
<path d="M33.3776 54C33.3776 51 33.5747 49.7 33.7719 51.3C33.9691 52.8 33.9691 55.2 33.7719 56.8C33.5747 58.3 33.3776 57 33.3776 54ZM40.6733 59.6L46.3916 54.2L43.0395 50.6L39.5888 47L42.5466 43.9C44.124 42.2 46.786 39.9 48.3635 38.9C50.7297 37.4 50.9269 37 49.3494 37C48.3635 37 45.3071 39.1 42.7438 41.7C39.5888 44.8 38.0114 45.9 38.0114 44.8C38.0114 42.9 45.5043 36.1 47.7719 35.9C53.3916 35.5 56.7438 38.2 56.7438 43.2C56.7438 45.7 55.2649 47.7 49.0536 53.9C44.8142 58.2 40.279 62.4 38.9973 63.3C34.2649 66.6 35.0536 64.9 40.6733 59.6Z" fill="white"/>
<path d="M38.0114 59.7C38.0114 59.5 39.4902 58.1 41.2649 56.4L44.4198 53.5L41.5606 56.8C38.8001 59.8 38.0114 60.5 38.0114 59.7Z" fill="white"/>
<path d="M98.296 24.712C98.296 26.176 98.008 27.4 97.432 28.384C96.88 29.368 96.16 30.16 95.272 30.76C94.384 31.336 93.388 31.756 92.284 32.02C91.18 32.26 90.088 32.38 89.008 32.38H86.704V29.86H88.972C89.74 29.86 90.496 29.788 91.24 29.644C92.008 29.476 92.68 29.2 93.256 28.816C93.856 28.408 94.336 27.88 94.696 27.232C95.08 26.56 95.272 25.72 95.272 24.712C95.272 23.824 95.068 23.08 94.66 22.48C94.276 21.856 93.784 21.352 93.184 20.968C92.56 20.584 91.864 20.308 91.096 20.14C90.328 19.948 89.56 19.852 88.792 19.852H85.084V43H82.24V17.476H88.828C89.956 17.476 91.084 17.596 92.212 17.836C93.34 18.052 94.348 18.436 95.236 18.988C96.148 19.54 96.88 20.284 97.432 21.22C98.008 22.156 98.296 23.32 98.296 24.712ZM116.209 42.964H113.545V31.228C113.545 30.844 113.485 30.424 113.365 29.968C113.269 29.488 113.089 29.044 112.825 28.636C112.561 28.228 112.201 27.892 111.745 27.628C111.289 27.34 110.725 27.196 110.053 27.196C108.901 27.196 107.821 27.724 106.813 28.78C105.805 29.812 105.097 31.084 104.689 32.596C104.569 33.028 104.485 33.46 104.437 33.892C104.389 34.324 104.365 34.756 104.365 35.188V42.964H101.773V17.368H104.365V29.536H104.437C104.533 29.224 104.713 28.804 104.977 28.276C105.265 27.748 105.649 27.232 106.129 26.728C106.609 26.224 107.209 25.792 107.929 25.432C108.649 25.072 109.513 24.892 110.521 24.892C111.169 24.892 111.829 24.988 112.501 25.18C113.173 25.348 113.785 25.636 114.337 26.044C114.889 26.428 115.333 26.956 115.669 27.628C116.029 28.276 116.209 29.068 116.209 30.004V42.964ZM134.782 42.856H132.046V40.624H131.974C131.854 40.816 131.614 41.068 131.254 41.38C130.894 41.668 130.426 41.956 129.85 42.244C129.274 42.532 128.602 42.772 127.834 42.964C127.09 43.156 126.274 43.252 125.386 43.252C124.762 43.252 124.15 43.156 123.55 42.964C122.974 42.748 122.446 42.436 121.966 42.028C121.486 41.62 121.102 41.128 120.814 40.552C120.526 39.976 120.382 39.328 120.382 38.608C120.382 37.312 120.79 36.184 121.606 35.224C122.422 34.24 123.406 33.568 124.558 33.208C125.278 32.992 126.022 32.836 126.79 32.74C127.558 32.644 128.29 32.596 128.986 32.596C129.658 32.572 130.258 32.572 130.786 32.596C131.338 32.596 131.758 32.596 132.046 32.596V30.832C132.046 30.544 131.998 30.172 131.902 29.716C131.806 29.26 131.614 28.828 131.326 28.42C131.038 28.012 130.618 27.664 130.066 27.376C129.538 27.064 128.83 26.908 127.942 26.908C126.79 26.908 125.854 27.172 125.134 27.7C124.414 28.228 124.054 28.924 124.054 29.788H120.886C120.886 29.188 121.03 28.6 121.318 28.024C121.63 27.424 122.086 26.884 122.686 26.404C123.286 25.924 124.018 25.54 124.882 25.252C125.77 24.94 126.79 24.784 127.942 24.784C130.246 24.784 131.962 25.36 133.09 26.512C134.218 27.64 134.782 29.032 134.782 30.688V42.856ZM132.046 36.268V34.432C131.422 34.408 130.666 34.408 129.778 34.432C128.914 34.432 128.05 34.528 127.186 34.72C126.778 34.84 126.346 34.996 125.89 35.188C125.458 35.356 125.05 35.584 124.666 35.872C124.282 36.16 123.97 36.508 123.73 36.916C123.49 37.3 123.37 37.744 123.37 38.248C123.37 39.4 123.742 40.18 124.486 40.588C125.23 40.972 126.034 41.164 126.898 41.164C127.258 41.164 127.666 41.092 128.122 40.948C128.602 40.804 129.082 40.6 129.562 40.336C130.018 40.072 130.438 39.76 130.822 39.4C131.206 39.04 131.494 38.632 131.686 38.176C131.83 37.888 131.926 37.588 131.974 37.276C132.022 36.964 132.046 36.628 132.046 36.268ZM150.109 27.628C149.341 27.628 148.561 27.724 147.769 27.916C147.001 28.084 146.281 28.36 145.609 28.744C144.937 29.128 144.349 29.632 143.845 30.256C143.341 30.856 142.981 31.576 142.765 32.416C142.645 32.896 142.549 33.412 142.477 33.964C142.429 34.492 142.405 35.056 142.405 35.656V42.964H139.777V25.324H142.405V29.248H142.477C143.173 27.832 144.145 26.764 145.393 26.044C146.665 25.3 148.237 24.928 150.109 24.928V27.628ZM176.862 42.928H174.342V33.136C174.342 32.512 174.318 31.864 174.27 31.192C174.222 30.496 174.102 29.872 173.91 29.32C173.694 28.768 173.358 28.312 172.902 27.952C172.446 27.568 171.81 27.376 170.994 27.376C169.962 27.376 169.038 27.928 168.222 29.032C167.406 30.112 166.818 31.444 166.458 33.028C166.386 33.532 166.326 34 166.278 34.432C166.23 34.84 166.206 35.248 166.206 35.656V42.928H163.686V33.136C163.686 32.512 163.65 31.864 163.578 31.192C163.53 30.496 163.398 29.872 163.182 29.32C162.966 28.768 162.63 28.312 162.174 27.952C161.742 27.568 161.13 27.376 160.338 27.376C159.618 27.376 158.934 27.652 158.286 28.204C157.638 28.756 157.098 29.476 156.666 30.364C156.306 31.18 156.03 32.02 155.838 32.884C155.646 33.724 155.55 34.648 155.55 35.656V42.928H153.03V25.288H155.55V29.356H155.622C155.718 28.996 155.886 28.564 156.126 28.06C156.366 27.532 156.702 27.04 157.134 26.584C157.542 26.104 158.058 25.696 158.682 25.36C159.33 25.024 160.086 24.856 160.95 24.856C162.39 24.856 163.518 25.216 164.334 25.936C165.174 26.632 165.774 27.628 166.134 28.924H166.206C166.254 28.684 166.386 28.348 166.602 27.916C166.818 27.46 167.142 27.004 167.574 26.548C168.006 26.092 168.546 25.696 169.194 25.36C169.842 25.024 170.634 24.856 171.57 24.856C173.082 24.856 174.342 25.324 175.35 26.26C176.358 27.172 176.862 28.528 176.862 30.328V42.928ZM195.426 42.856H192.69V40.624H192.618C192.498 40.816 192.258 41.068 191.898 41.38C191.538 41.668 191.07 41.956 190.494 42.244C189.918 42.532 189.246 42.772 188.478 42.964C187.734 43.156 186.918 43.252 186.03 43.252C185.406 43.252 184.794 43.156 184.194 42.964C183.618 42.748 183.09 42.436 182.61 42.028C182.13 41.62 181.746 41.128 181.458 40.552C181.17 39.976 181.026 39.328 181.026 38.608C181.026 37.312 181.434 36.184 182.25 35.224C183.066 34.24 184.05 33.568 185.202 33.208C185.922 32.992 186.666 32.836 187.434 32.74C188.202 32.644 188.934 32.596 189.63 32.596C190.302 32.572 190.902 32.572 191.43 32.596C191.982 32.596 192.402 32.596 192.69 32.596V30.832C192.69 30.544 192.642 30.172 192.546 29.716C192.45 29.26 192.258 28.828 191.97 28.42C191.682 28.012 191.262 27.664 190.71 27.376C190.182 27.064 189.474 26.908 188.586 26.908C187.434 26.908 186.498 27.172 185.778 27.7C185.058 28.228 184.698 28.924 184.698 29.788H181.53C181.53 29.188 181.674 28.6 181.962 28.024C182.274 27.424 182.73 26.884 183.33 26.404C183.93 25.924 184.662 25.54 185.526 25.252C186.414 24.94 187.434 24.784 188.586 24.784C190.89 24.784 192.606 25.36 193.734 26.512C194.862 27.64 195.426 29.032 195.426 30.688V42.856ZM192.69 36.268V34.432C192.066 34.408 191.31 34.408 190.422 34.432C189.558 34.432 188.694 34.528 187.83 34.72C187.422 34.84 186.99 34.996 186.534 35.188C186.102 35.356 185.694 35.584 185.31 35.872C184.926 36.16 184.614 36.508 184.374 36.916C184.134 37.3 184.014 37.744 184.014 38.248C184.014 39.4 184.386 40.18 185.13 40.588C185.874 40.972 186.678 41.164 187.542 41.164C187.902 41.164 188.31 41.092 188.766 40.948C189.246 40.804 189.726 40.6 190.206 40.336C190.662 40.072 191.082 39.76 191.466 39.4C191.85 39.04 192.138 38.632 192.33 38.176C192.474 37.888 192.57 37.588 192.618 37.276C192.666 36.964 192.69 36.628 192.69 36.268Z" fill="black"/>
<path d="M85.12 76H82.132V50.44H85.12V76ZM105.452 75.928H102.932V66.136C102.932 65.512 102.908 64.876 102.86 64.228C102.812 63.556 102.668 62.944 102.428 62.392C102.212 61.84 101.852 61.384 101.348 61.024C100.844 60.664 100.136 60.448 99.2236 60.376C97.9996 60.304 96.8836 60.808 95.8756 61.888C94.8916 62.968 94.1836 64.348 93.7516 66.028C93.6556 66.532 93.5836 67 93.5356 67.432C93.4876 67.84 93.4636 68.248 93.4636 68.656V75.928H90.9436V58.288H93.4636V62.356H93.5356C93.6316 62.044 93.8236 61.636 94.1116 61.132C94.3996 60.628 94.7836 60.136 95.2636 59.656C95.7676 59.176 96.3796 58.756 97.0996 58.396C97.8436 58.036 98.7436 57.856 99.7996 57.856C101.384 57.856 102.716 58.372 103.796 59.404C104.9 60.436 105.452 61.744 105.452 63.328V75.928ZM125.533 63.76H122.545C122.545 62.8 122.197 61.936 121.501 61.168C120.829 60.376 119.773 59.98 118.333 59.98C116.677 59.98 115.309 60.556 114.229 61.708C113.149 62.836 112.609 64.336 112.609 66.208C112.609 66.784 112.645 67.408 112.717 68.08C112.813 68.728 112.993 69.364 113.257 69.988C113.521 70.636 113.905 71.26 114.409 71.86C114.913 72.46 115.585 72.988 116.425 73.444C116.713 73.612 117.169 73.768 117.793 73.912C118.441 74.056 119.173 74.14 119.989 74.164C120.781 74.164 121.609 74.08 122.473 73.912C123.361 73.744 124.201 73.42 124.993 72.94V75.064C123.937 75.616 122.809 75.976 121.609 76.144C120.433 76.336 119.269 76.372 118.117 76.252C116.965 76.108 115.885 75.844 114.877 75.46C113.893 75.052 113.089 74.524 112.465 73.876C111.673 73.084 111.013 72.088 110.485 70.888C109.957 69.688 109.693 68.284 109.693 66.676C109.693 65.404 109.885 64.228 110.269 63.148C110.653 62.068 111.217 61.132 111.961 60.34C112.705 59.572 113.617 58.972 114.697 58.54C115.801 58.084 117.049 57.856 118.441 57.856C119.401 57.856 120.301 57.988 121.141 58.252C122.005 58.516 122.761 58.9 123.409 59.404C124.057 59.908 124.573 60.532 124.957 61.276C125.341 61.996 125.533 62.824 125.533 63.76Z" fill="black"/>
</svg>
