<?xml version="1.0" standalone="no"?>
<!DOCTYPE svg PUBLIC "-//W3C//DTD SVG 20010904//EN"
 "http://www.w3.org/TR/2001/REC-SVG-20010904/DTD/svg10.dtd">
<svg version="1.0" xmlns="http://www.w3.org/2000/svg"
 width="976.000000pt" height="976.000000pt" viewBox="0 0 976.000000 976.000000"
 preserveAspectRatio="xMidYMid meet">
<metadata>
Created by potrace 1.14, written by Peter Selinger 2001-2017
</metadata>
<g transform="translate(0.000000,976.000000) scale(0.100000,-0.100000)"
fill="#000000" stroke="none">
<path d="M5018 8983 c-10 -3 -18 -9 -18 -13 0 -5 -32 -8 -70 -7 -39 1 -70 -2
-70 -6 0 -5 -4 -6 -8 -3 -5 3 -46 5 -93 5 -46 1 -106 1 -134 2 -59 1 -50 2
-145 -5 -80 -6 -132 -11 -220 -21 -106 -12 -125 -15 -150 -20 -24 -5 -80 -13
-130 -20 -14 -2 -25 -4 -25 -5 0 -1 -11 -3 -25 -5 -14 -1 -38 -6 -55 -9 -31
-7 -44 -10 -110 -21 -22 -3 -47 -9 -55 -12 -27 -10 -44 -14 -72 -15 -16 -1
-28 -4 -28 -8 0 -4 -6 -7 -12 -7 -22 -1 -70 -12 -123 -27 -71 -22 -168 -49
-180 -52 -28 -5 -328 -110 -372 -130 -17 -8 -33 -14 -36 -14 -3 0 -18 -5 -34
-12 -15 -6 -30 -12 -33 -13 -11 -4 -162 -70 -205 -90 -54 -25 -219 -107 -270
-135 -54 -29 -196 -109 -223 -125 -148 -88 -305 -193 -310 -206 -2 -5 -8 -9
-14 -9 -6 0 -23 -10 -38 -22 -15 -13 -38 -30 -50 -38 -13 -8 -31 -22 -40 -30
-9 -8 -38 -32 -65 -52 -28 -21 -57 -43 -65 -50 -8 -7 -30 -26 -50 -41 -138
-111 -430 -401 -550 -547 -11 -14 -30 -36 -43 -51 -12 -14 -32 -38 -44 -55
-12 -16 -47 -63 -78 -104 -30 -41 -65 -87 -76 -102 -11 -15 -19 -30 -17 -33 2
-4 -5 -11 -14 -16 -10 -6 -18 -15 -18 -20 0 -6 -11 -25 -25 -43 -14 -18 -25
-38 -25 -44 0 -6 -3 -12 -7 -14 -10 -4 -73 -107 -73 -118 0 -5 -3 -10 -7 -12
-5 -1 -20 -28 -36 -58 -15 -30 -38 -73 -50 -95 -30 -54 -137 -285 -143 -310
-3 -15 -64 -176 -79 -210 -8 -17 -16 -42 -19 -55 -7 -34 -13 -56 -31 -120 -9
-30 -17 -59 -19 -65 -3 -11 -15 -68 -21 -100 -2 -11 -4 -20 -5 -20 -2 0 -6
-20 -14 -65 -4 -19 -9 -42 -11 -50 -3 -8 -7 -37 -10 -65 -3 -27 -8 -61 -10
-75 -44 -273 -35 -740 19 -990 3 -13 8 -40 11 -60 9 -57 12 -70 45 -196 17
-65 32 -123 34 -129 1 -5 5 -15 8 -21 4 -6 9 -21 12 -35 4 -22 17 -61 33 -99
3 -8 7 -18 8 -22 2 -5 4 -10 5 -13 1 -3 3 -8 5 -12 11 -39 110 -270 122 -284
7 -8 13 -19 13 -23 0 -10 72 -159 80 -166 3 -3 19 -31 35 -62 17 -32 33 -58
38 -58 4 0 7 -6 7 -14 0 -8 6 -21 12 -28 12 -13 29 -40 52 -83 18 -32 191
-281 206 -295 3 -3 30 -36 59 -75 55 -71 77 -97 119 -142 12 -13 22 -26 22
-28 0 -2 30 -36 68 -76 172 -186 379 -381 527 -498 44 -35 81 -67 83 -72 2 -5
8 -9 14 -9 5 0 15 -6 22 -12 7 -7 25 -22 40 -33 16 -11 47 -34 70 -51 84 -62
207 -144 215 -144 5 0 11 -4 13 -8 4 -11 81 -57 91 -54 4 1 7 -2 7 -7 0 -5 14
-14 30 -21 17 -7 30 -16 30 -20 0 -4 8 -10 17 -13 10 -3 41 -19 68 -36 28 -16
84 -47 125 -67 41 -21 78 -42 81 -47 3 -5 9 -8 13 -8 3 1 41 -15 84 -35 73
-34 127 -59 215 -98 22 -9 78 -32 125 -50 48 -18 96 -37 107 -41 11 -4 25 -9
30 -10 6 -2 39 -13 75 -25 36 -12 79 -26 95 -30 17 -5 78 -22 136 -39 58 -16
117 -32 130 -35 13 -2 43 -9 67 -14 23 -5 42 -8 42 -6 0 3 9 0 19 -5 10 -6 40
-13 66 -16 26 -2 55 -7 65 -10 10 -3 34 -8 52 -10 18 -2 42 -6 53 -8 11 -3 45
-8 76 -11 31 -4 65 -8 76 -10 11 -3 44 -7 74 -10 30 -3 70 -8 89 -10 130 -16
323 -31 530 -41 108 -5 273 -14 295 -16 18 -1 305 12 358 16 102 9 152 14 177
20 14 3 45 7 70 10 25 3 56 8 70 11 56 10 95 17 180 30 23 4 39 7 95 18 297
60 702 184 965 295 41 18 93 40 115 49 52 22 371 182 457 230 102 57 243 144
246 154 2 4 8 8 14 8 6 0 40 21 77 47 36 25 86 60 111 77 25 17 52 36 60 43
23 18 84 65 116 88 15 11 35 27 43 35 9 9 40 36 70 60 87 72 99 82 161 140
127 119 178 170 253 251 43 46 96 103 118 127 21 23 39 46 39 50 0 4 9 14 20
22 11 8 20 18 20 22 0 4 8 16 18 26 28 30 113 141 162 212 19 28 43 60 53 72
9 12 17 25 17 29 0 4 6 14 13 21 7 7 24 31 37 53 13 22 26 42 29 45 7 6 34 53
53 90 7 14 15 27 18 30 21 20 212 403 225 450 1 3 6 16 12 30 10 24 79 220
101 288 6 17 8 32 5 32 -3 0 0 7 7 15 7 8 10 15 6 15 -3 0 -1 11 4 25 5 14 12
36 15 48 2 12 9 40 14 62 6 22 13 55 16 74 3 19 7 37 9 40 2 3 7 26 10 51 3
25 8 56 11 70 3 14 8 41 10 60 2 19 6 51 9 70 15 118 20 196 20 370 0 177 -7
326 -19 405 -3 17 -7 47 -10 68 -8 62 -16 111 -21 137 -3 14 -7 39 -10 55 -3
17 -14 66 -25 110 -10 44 -21 89 -23 100 -6 27 -66 219 -83 263 -3 9 -7 19 -7
22 -1 3 -21 55 -45 115 -90 222 -218 460 -374 695 -50 74 -93 137 -96 140 -3
3 -26 32 -50 65 -25 33 -47 62 -50 65 -4 3 -18 21 -33 42 -15 20 -33 42 -40
50 -7 7 -38 42 -68 78 -58 69 -77 89 -210 225 -74 76 -120 119 -275 257 -16
15 -37 33 -45 41 -8 7 -35 29 -60 48 -25 19 -47 36 -50 39 -34 38 -458 330
-478 330 -6 0 -12 4 -14 8 -5 12 -279 168 -348 197 -19 9 -44 21 -55 27 -35
19 -48 26 -138 67 -49 23 -92 41 -96 41 -4 0 -32 12 -62 26 -30 15 -60 27 -66
27 -7 0 -13 5 -13 10 0 6 -3 8 -6 4 -3 -3 -26 3 -50 13 -24 11 -99 38 -166 60
-68 23 -130 44 -138 47 -8 3 -19 7 -25 8 -5 2 -57 16 -115 33 -113 33 -294 78
-350 87 -19 3 -48 10 -65 15 -16 4 -51 11 -76 15 -43 5 -60 8 -119 19 -98 17
-153 24 -251 31 -30 2 -67 8 -81 14 -14 5 -28 8 -30 6 -6 -6 -65 -6 -133 -1
-33 3 -95 7 -138 10 -43 3 -82 7 -85 9 -4 2 -15 2 -24 0z"/>
</g>
</svg>
